<?xml version="1.0" encoding="UTF-8" standalone="no"?>
<!-- Created with Inkscape (http://www.inkscape.org/) -->

<svg
   xmlns:dc="http://purl.org/dc/elements/1.1/"
   xmlns:cc="http://creativecommons.org/ns#"
   xmlns:rdf="http://www.w3.org/1999/02/22-rdf-syntax-ns#"
   xmlns:svg="http://www.w3.org/2000/svg"
   xmlns="http://www.w3.org/2000/svg"
   xmlns:sodipodi="http://sodipodi.sourceforge.net/DTD/sodipodi-0.dtd"
   xmlns:inkscape="http://www.inkscape.org/namespaces/inkscape"
   width="200"
   height="200"
   viewBox="0 0 199.99999 199.99999"
   id="svg2"
   version="1.1"
   inkscape:version="0.91 r13725"
   sodipodi:docname="logo.svg"
   inkscape:export-filename="X:\Scott\Projects\Visual Studio\C#\kReport\src\kReport\wwwroot\Media\logo.png"
   inkscape:export-xdpi="54"
   inkscape:export-ydpi="54">
  <defs
     id="defs4" />
  <sodipodi:namedview
     id="base"
     pagecolor="#ffffff"
     bordercolor="#666666"
     borderopacity="1.0"
     inkscape:pageopacity="0.0"
     inkscape:pageshadow="2"
     inkscape:zoom="2.8"
     inkscape:cx="162.05567"
     inkscape:cy="97.334525"
     inkscape:document-units="px"
     inkscape:current-layer="layer1"
     showgrid="false"
     showborder="true"
     inkscape:showpageshadow="false"
     borderlayer="true"
     units="px"
     inkscape:window-width="1920"
     inkscape:window-height="1017"
     inkscape:window-x="-8"
     inkscape:window-y="-8"
     inkscape:window-maximized="1" />
  <metadata
     id="metadata7">
    <rdf:RDF>
      <cc:Work
         rdf:about="">
        <dc:format>image/svg+xml</dc:format>
        <dc:type
           rdf:resource="http://purl.org/dc/dcmitype/StillImage" />
        <dc:title></dc:title>
      </cc:Work>
    </rdf:RDF>
  </metadata>
  <g
     inkscape:label="Layer 1"
     inkscape:groupmode="layer"
     id="layer1"
     transform="translate(0,-852.36225)">
    <path
       style="font-style:normal;font-weight:normal;font-size:540.42926025px;line-height:125%;font-family:sans-serif;letter-spacing:0px;word-spacing:0px;fill:#000000;fill-opacity:1;stroke:none;stroke-width:1px;stroke-linecap:butt;stroke-linejoin:miter;stroke-opacity:1"
       d="m 79.617209,904.95213 0,40.95854 -20.955577,-22.78116 -21.161635,0 30.481344,33.88089 c -2.631501,3.65486 -7.49244,10.48951 -14.582874,20.50384 -7.090436,9.94127 -12.389801,17.3605 -15.89847,22.2581 l 19.95541,0 22.161802,-29.83743 0,29.83743 7.991042,0 8.76018,0 4.410409,0 0,-30.25034 14.65025,0 21.02611,30.25034 26.04478,0 -24.00997,-33.91299 c 12.02771,-4.43127 18.04146,-14.2431 18.04146,-29.436 0,-11.03295 -3.16528,-19.0365 -9.49565,-24.01038 -6.23995,-4.97386 -16.73008,-7.46084 -31.47081,-7.46084 l -35.947801,0 z m 21.161631,18.17738 15.87113,0 c 6.78255,0 11.53025,0.94962 14.24328,2.84875 2.71302,1.8991 4.06962,5.42587 4.06962,10.58061 0,5.06429 -1.31111,8.77221 -3.9337,11.1235 -2.62259,2.35128 -7.55145,3.52674 -14.78616,3.52674 l -15.46417,0 0,-28.0796 z"
       id="text3336"
       inkscape:connector-curvature="0" />
  </g>
</svg>